<svg xmlns="http://www.w3.org/2000/svg" width="600" height="400" viewBox="0 0 600 400" fill="none">
  <rect width="600" height="400" fill="#F8F9FA" fill-opacity="0.01"/>
  
  <!-- Background Circles -->
  <circle cx="300" cy="200" r="180" fill="#3D5AF1" fill-opacity="0.05"/>
  <circle cx="300" cy="200" r="120" fill="#3D5AF1" fill-opacity="0.1"/>
  
  <!-- Blockchain Elements -->
  <g id="blockchain">
    <!-- Connected Blocks -->
    <rect x="150" y="120" width="60" height="60" rx="8" fill="#3D5AF1" fill-opacity="0.8"/>
    <rect x="270" y="120" width="60" height="60" rx="8" fill="#3D5AF1"/>
    <rect x="390" y="120" width="60" height="60" rx="8" fill="#3D5AF1" fill-opacity="0.8"/>
    <rect x="150" y="220" width="60" height="60" rx="8" fill="#3D5AF1"/>
    <rect x="270" y="220" width="60" height="60" rx="8" fill="#3D5AF1" fill-opacity="0.8"/>
    <rect x="390" y="220" width="60" height="60" rx="8" fill="#3D5AF1"/>
    
    <!-- Connecting Lines -->
    <line x1="210" y1="150" x2="270" y2="150" stroke="#22C1C3" stroke-width="3"/>
    <line x1="330" y1="150" x2="390" y2="150" stroke="#22C1C3" stroke-width="3"/>
    <line x1="180" y1="180" x2="180" y2="220" stroke="#22C1C3" stroke-width="3"/>
    <line x1="300" y1="180" x2="300" y2="220" stroke="#22C1C3" stroke-width="3"/>
    <line x1="420" y1="180" x2="420" y2="220" stroke="#22C1C3" stroke-width="3"/>
    <line x1="210" y1="250" x2="270" y2="250" stroke="#22C1C3" stroke-width="3"/>
    <line x1="330" y1="250" x2="390" y2="250" stroke="#22C1C3" stroke-width="3"/>
  </g>
  
  <!-- Document/Credential Icons -->
  <g id="credentials">
    <!-- Document 1 -->
    <rect x="165" y="135" width="30" height="30" rx="2" fill="white" stroke="#22C1C3" stroke-width="2"/>
    <line x1="172" y1="145" x2="188" y2="145" stroke="#22C1C3" stroke-width="2"/>
    <line x1="172" y1="150" x2="188" y2="150" stroke="#22C1C3" stroke-width="2"/>
    <line x1="172" y1="155" x2="183" y2="155" stroke="#22C1C3" stroke-width="2"/>
    
    <!-- Document 2 -->
    <rect x="285" y="135" width="30" height="30" rx="2" fill="white" stroke="#22C1C3" stroke-width="2"/>
    <line x1="292" y1="145" x2="308" y2="145" stroke="#22C1C3" stroke-width="2"/>
    <line x1="292" y1="150" x2="308" y2="150" stroke="#22C1C3" stroke-width="2"/>
    <line x1="292" y1="155" x2="303" y2="155" stroke="#22C1C3" stroke-width="2"/>
    
    <!-- Document 3 -->
    <rect x="405" y="135" width="30" height="30" rx="2" fill="white" stroke="#22C1C3" stroke-width="2"/>
    <line x1="412" y1="145" x2="428" y2="145" stroke="#22C1C3" stroke-width="2"/>
    <line x1="412" y1="150" x2="428" y2="150" stroke="#22C1C3" stroke-width="2"/>
    <line x1="412" y1="155" x2="423" y2="155" stroke="#22C1C3" stroke-width="2"/>
    
    <!-- Document 4 -->
    <rect x="165" y="235" width="30" height="30" rx="2" fill="white" stroke="#22C1C3" stroke-width="2"/>
    <line x1="172" y1="245" x2="188" y2="245" stroke="#22C1C3" stroke-width="2"/>
    <line x1="172" y1="250" x2="188" y2="250" stroke="#22C1C3" stroke-width="2"/>
    <line x1="172" y1="255" x2="183" y2="255" stroke="#22C1C3" stroke-width="2"/>
    
    <!-- Document 5 -->
    <rect x="285" y="235" width="30" height="30" rx="2" fill="white" stroke="#22C1C3" stroke-width="2"/>
    <line x1="292" y1="245" x2="308" y2="245" stroke="#22C1C3" stroke-width="2"/>
    <line x1="292" y1="250" x2="308" y2="250" stroke="#22C1C3" stroke-width="2"/>
    <line x1="292" y1="255" x2="303" y2="255" stroke="#22C1C3" stroke-width="2"/>
    
    <!-- Document 6 -->
    <rect x="405" y="235" width="30" height="30" rx="2" fill="white" stroke="#22C1C3" stroke-width="2"/>
    <line x1="412" y1="245" x2="428" y2="245" stroke="#22C1C3" stroke-width="2"/>
    <line x1="412" y1="250" x2="428" y2="250" stroke="#22C1C3" stroke-width="2"/>
    <line x1="412" y1="255" x2="423" y2="255" stroke="#22C1C3" stroke-width="2"/>
  </g>
  
  <!-- Verification Check Icons -->
  <g id="verification">
    <circle cx="180" cy="180" r="15" fill="#22C1C3" fill-opacity="0.2"/>
    <path d="M175 180L178 183L186 175" stroke="#22C1C3" stroke-width="3" stroke-linecap="round" stroke-linejoin="round"/>
    
    <circle cx="300" cy="180" r="15" fill="#22C1C3" fill-opacity="0.2"/>
    <path d="M295 180L298 183L306 175" stroke="#22C1C3" stroke-width="3" stroke-linecap="round" stroke-linejoin="round"/>
    
    <circle cx="420" cy="180" r="15" fill="#22C1C3" fill-opacity="0.2"/>
    <path d="M415 180L418 183L426 175" stroke="#22C1C3" stroke-width="3" stroke-linecap="round" stroke-linejoin="round"/>
  </g>
  
  <!-- Lock Icon (Security) -->
  <g id="security">
    <rect x="270" y="320" width="60" height="40" rx="8" fill="#3D5AF1"/>
    <path d="M285 320V310C285 298.954 294.954 289 306 289V289C317.046 289 327 298.954 327 310V320" stroke="#22C1C3" stroke-width="3"/>
    <circle cx="300" cy="340" r="5" fill="white"/>
  </g>
</svg> 